HIERARCHY
ROOT Hips
{
	OFFSET 0.000000 71.427986 0.000000
	CHANNELS 6 Xposition Yposition Zposition Xrotation Yrotation Zrotation
	JOINT Pelvis
	{
		OFFSET 0.000000 0.000000 0.000000
		CHANNELS 3 Xrotation Yrotation Zrotation
		JOINT LeftUpLeg
		{
			OFFSET 6.797100 -2.508499 -1.318700
			CHANNELS 3 Xrotation Yrotation Zrotation
			JOINT LeftLeg
			{
				OFFSET 0.069008 -29.241863 0.690200
				CHANNELS 3 Xrotation Yrotation Zrotation
				JOINT LeftFoot
				{
					OFFSET -0.069008 -29.568123 -0.266800
					CHANNELS 3 Xrotation Yrotation Zrotation
					JOINT LeftToeBase
					{
						OFFSET 3.145500 -8.631000 16.059900
						CHANNELS 3 Xrotation Yrotation Zrotation
						End Site
						{
							OFFSET 0.000000 18.501587 0.000000
						}
					}
				}
			}
			JOINT Left_ShortSleeve
			{
				OFFSET 0.265923 -10.480953 1.153800
				CHANNELS 3 Xrotation Yrotation Zrotation
				End Site
				{
					OFFSET 1.725763 19.823879 0.000000
				}
			}
		}
		JOINT RightUpLeg
		{
			OFFSET -6.797100 -2.508499 -1.318700
			CHANNELS 3 Xrotation Yrotation Zrotation
			JOINT RightLeg
			{
				OFFSET -0.082453 -29.241932 0.688000
				CHANNELS 3 Xrotation Yrotation Zrotation
				JOINT RightFoot
				{
					OFFSET 0.082453 -29.568058 -0.264600
					CHANNELS 3 Xrotation Yrotation Zrotation
					JOINT RightToeBase
					{
						OFFSET -3.115300 -8.682800 16.113400
						CHANNELS 3 Xrotation Yrotation Zrotation
						End Site
						{
							OFFSET 0.000000 18.567114 0.000000
						}
					}
				}
			}
			JOINT Right_ShortSleeve
			{
				OFFSET -0.265923 -10.480953 1.153800
				CHANNELS 3 Xrotation Yrotation Zrotation
				End Site
				{
					OFFSET -1.725766 19.823910 0.000000
				}
			}
		}
	}
	JOINT Spine
	{
		OFFSET 0.000000 13.368103 0.470500
		CHANNELS 3 Xrotation Yrotation Zrotation
		JOINT Spine1
		{
			OFFSET 0.147000 13.837402 0.538800
			CHANNELS 3 Xrotation Yrotation Zrotation
			JOINT Spine2
			{
				OFFSET 0.168000 16.242897 -1.435500
				CHANNELS 3 Xrotation Yrotation Zrotation
				JOINT Neck
				{
					OFFSET 0.217200 18.631500 -1.679100
					CHANNELS 3 Xrotation Yrotation Zrotation
					JOINT Head
					{
						OFFSET 0.000000 6.599396 1.385900
						CHANNELS 3 Xrotation Yrotation Zrotation
						JOINT Hat
						{
							OFFSET -0.532200 27.220596 -10.096100
							CHANNELS 3 Xrotation Yrotation Zrotation
							End Site
							{
								OFFSET 0.000000 22.029861 0.000000
							}
						}
						JOINT HairD
						{
							OFFSET -10.777400 17.437393 -1.325900
							CHANNELS 3 Xrotation Yrotation Zrotation
							JOINT HairD1
							{
								OFFSET -3.290299 -11.051193 1.062200
								CHANNELS 3 Xrotation Yrotation Zrotation
								End Site
								{
									OFFSET 0.000000 11.579437 0.000000
								}
							}
						}
						JOINT HairB
						{
							OFFSET -10.777400 17.437393 1.467900
							CHANNELS 3 Xrotation Yrotation Zrotation
							JOINT HairB1
							{
								OFFSET -1.561200 -12.956299 3.590200
								CHANNELS 3 Xrotation Yrotation Zrotation
								End Site
								{
									OFFSET 0.000000 13.534866 0.000000
								}
							}
						}
						JOINT HairA
						{
							OFFSET 9.713100 17.437393 1.467900
							CHANNELS 3 Xrotation Yrotation Zrotation
							JOINT HairA1
							{
								OFFSET 1.561200 -12.956299 3.590200
								CHANNELS 3 Xrotation Yrotation Zrotation
								End Site
								{
									OFFSET 0.000000 13.534866 0.000000
								}
							}
						}
						JOINT HairC
						{
							OFFSET 9.713100 17.437393 -1.325900
							CHANNELS 3 Xrotation Yrotation Zrotation
							JOINT HairC1
							{
								OFFSET 3.290300 -11.051193 1.062200
								CHANNELS 3 Xrotation Yrotation Zrotation
								End Site
								{
									OFFSET 0.000000 11.579437 0.000000
								}
							}
						}
					}
				}
				JOINT LeftShoulder
				{
					OFFSET 5.101800 15.108002 -2.763700
					CHANNELS 3 Xrotation Yrotation Zrotation
					JOINT LeftArm
					{
						OFFSET 9.825497 2.506317 -1.597400
						CHANNELS 3 Xrotation Yrotation Zrotation
						JOINT LeftForeArm
						{
							OFFSET 21.966244 0.000000 0.000000
							CHANNELS 3 Xrotation Yrotation Zrotation
							JOINT LeftHand
							{
								OFFSET 33.879036 0.000000 0.000000
								CHANNELS 3 Xrotation Yrotation Zrotation
								JOINT LeftHandThumb1
								{
									OFFSET 6.715286 -2.359680 3.363841
									CHANNELS 3 Xrotation Yrotation Zrotation
									JOINT LeftHandThumb2
									{
										OFFSET 2.507072 -1.447464 1.447461
										CHANNELS 3 Xrotation Yrotation Zrotation
										JOINT LeftHandThumb3
										{
											OFFSET 2.898338 -1.673355 1.673357
											CHANNELS 3 Xrotation Yrotation Zrotation
											End Site
											{
												OFFSET -0.295959 3.727692 -0.131651
											}
										}
									}
								}
								JOINT LeftHandIndex1
								{
									OFFSET 14.190811 -0.254547 3.840278
									CHANNELS 3 Xrotation Yrotation Zrotation
									JOINT LeftHandIndex2
									{
										OFFSET 3.551727 0.000000 -0.000000
										CHANNELS 3 Xrotation Yrotation Zrotation
										JOINT LeftHandIndex3
										{
											OFFSET 2.894196 0.000000 0.000000
											CHANNELS 3 Xrotation Yrotation Zrotation
											End Site
											{
												OFFSET -1.000603 2.690872 0.366626
											}
										}
									}
								}
								JOINT LeftHandMiddle1
								{
									OFFSET 13.776489 0.000000 0.000000
									CHANNELS 3 Xrotation Yrotation Zrotation
									JOINT LeftHandMiddle2
									{
										OFFSET 3.438232 0.000000 0.000000
										CHANNELS 3 Xrotation Yrotation Zrotation
										JOINT LeftHandMiddle3
										{
											OFFSET 3.691551 0.000000 0.000000
											CHANNELS 3 Xrotation Yrotation Zrotation
											End Site
											{
												OFFSET -1.082298 3.499527 0.457670
											}
										}
									}
								}
								JOINT LeftHandRing1
								{
									OFFSET 13.966164 -0.268127 -3.067488
									CHANNELS 3 Xrotation Yrotation Zrotation
									JOINT LeftHandRing2
									{
										OFFSET 3.162567 0.000000 0.000000
										CHANNELS 3 Xrotation Yrotation Zrotation
										JOINT LeftHandRing3
										{
											OFFSET 3.324348 0.000000 0.000000
											CHANNELS 3 Xrotation Yrotation Zrotation
											End Site
											{
												OFFSET -0.861900 3.184998 0.405154
											}
										}
									}
								}
								JOINT LeftHandPinky1
								{
									OFFSET 13.131393 -0.168503 -5.746925
									CHANNELS 3 Xrotation Yrotation Zrotation
									JOINT LeftHandPinky2
									{
										OFFSET 2.849182 0.000000 0.000000
										CHANNELS 3 Xrotation Yrotation Zrotation
										JOINT LeftHandPinky3
										{
											OFFSET 2.805038 0.000000 0.000000
											CHANNELS 3 Xrotation Yrotation Zrotation
											End Site
											{
												OFFSET -0.882500 2.642609 0.325652
											}
										}
									}
								}
							}
							JOINT Left_Sleeve
							{
								OFFSET 6.592125 -0.646545 0.805568
								CHANNELS 3 Xrotation Yrotation Zrotation
								End Site
								{
									OFFSET -0.000179 20.275787 -0.000000
								}
							}
						}
					}
				}
				JOINT RightShoulder
				{
					OFFSET -5.731700 15.108002 -2.763700
					CHANNELS 3 Xrotation Yrotation Zrotation
					JOINT RightArm
					{
						OFFSET -9.825497 2.506317 -1.597400
						CHANNELS 3 Xrotation Yrotation Zrotation
						JOINT RightForeArm
						{
							OFFSET -21.966242 0.000000 0.000000
							CHANNELS 3 Xrotation Yrotation Zrotation
							JOINT RightHand
							{
								OFFSET -33.879032 0.000000 0.000000
								CHANNELS 3 Xrotation Yrotation Zrotation
								JOINT RightHandThumb1
								{
									OFFSET -6.715286 -2.359680 3.363841
									CHANNELS 3 Xrotation Yrotation Zrotation
									JOINT RightHandThumb2
									{
										OFFSET -2.507072 -1.447464 1.447461
										CHANNELS 3 Xrotation Yrotation Zrotation
										JOINT RightHandThumb3
										{
											OFFSET -2.898338 -1.673355 1.673357
											CHANNELS 3 Xrotation Yrotation Zrotation
											End Site
											{
												OFFSET 0.295959 3.727692 -0.131651
											}
										}
									}
								}
								JOINT RightHandIndex1
								{
									OFFSET -14.190811 -0.254547 3.840278
									CHANNELS 3 Xrotation Yrotation Zrotation
									JOINT RightHandIndex2
									{
										OFFSET -3.551727 0.000000 -0.000000
										CHANNELS 3 Xrotation Yrotation Zrotation
										JOINT RightHandIndex3
										{
											OFFSET -2.894196 0.000000 0.000000
											CHANNELS 3 Xrotation Yrotation Zrotation
											End Site
											{
												OFFSET 1.000603 2.690872 0.366626
											}
										}
									}
								}
								JOINT RightHandMiddle1
								{
									OFFSET -13.776489 0.000000 0.000000
									CHANNELS 3 Xrotation Yrotation Zrotation
									JOINT RightHandMiddle2
									{
										OFFSET -3.438232 0.000000 0.000000
										CHANNELS 3 Xrotation Yrotation Zrotation
										JOINT RightHandMiddle3
										{
											OFFSET -3.691551 0.000000 0.000000
											CHANNELS 3 Xrotation Yrotation Zrotation
											End Site
											{
												OFFSET 1.082298 3.499527 0.457670
											}
										}
									}
								}
								JOINT RightHandRing1
								{
									OFFSET -13.966164 -0.268127 -3.067488
									CHANNELS 3 Xrotation Yrotation Zrotation
									JOINT RightHandRing2
									{
										OFFSET -3.162567 0.000000 0.000000
										CHANNELS 3 Xrotation Yrotation Zrotation
										JOINT RightHandRing3
										{
											OFFSET -3.324348 0.000000 0.000000
											CHANNELS 3 Xrotation Yrotation Zrotation
											End Site
											{
												OFFSET 0.861900 3.184998 0.405154
											}
										}
									}
								}
								JOINT RightHandPinky1
								{
									OFFSET -13.131393 -0.168503 -5.746925
									CHANNELS 3 Xrotation Yrotation Zrotation
									JOINT RightHandPinky2
									{
										OFFSET -2.849182 0.000000 0.000000
										CHANNELS 3 Xrotation Yrotation Zrotation
										JOINT RightHandPinky3
										{
											OFFSET -2.805038 0.000000 0.000000
											CHANNELS 3 Xrotation Yrotation Zrotation
											End Site
											{
												OFFSET 0.882500 2.642609 0.325652
											}
										}
									}
								}
							}
							JOINT Right_Sleeve
							{
								OFFSET -6.592125 -0.646545 0.805568
								CHANNELS 3 Xrotation Yrotation Zrotation
								End Site
								{
									OFFSET 0.000179 20.275787 -0.000000
								}
							}
						}
					}
				}
				JOINT Bind_Right_JacketString
				{
					OFFSET -3.534800 11.969597 7.200700
					CHANNELS 3 Xrotation Yrotation Zrotation
					JOINT Bind_Right_JacketString1
					{
						OFFSET -0.319900 -6.102600 2.794100
						CHANNELS 3 Xrotation Yrotation Zrotation
						End Site
						{
							OFFSET 0.000000 6.719452 0.000000
						}
					}
				}
				JOINT Bind_Left_JacketString
				{
					OFFSET 2.904800 11.969597 7.200700
					CHANNELS 3 Xrotation Yrotation Zrotation
					JOINT Bind_Left_JacketString1
					{
						OFFSET 0.364800 -5.904503 3.186800
						CHANNELS 3 Xrotation Yrotation Zrotation
						End Site
						{
							OFFSET 0.000000 6.719513 0.000000
						}
					}
				}
				JOINT HairE
				{
					OFFSET 5.915200 17.612701 -11.592200
					CHANNELS 3 Xrotation Yrotation Zrotation
					JOINT HairE1
					{
						OFFSET 0.289200 -7.171898 -1.284500
						CHANNELS 3 Xrotation Yrotation Zrotation
						End Site
						{
							OFFSET 0.000000 7.291756 0.000000
						}
					}
				}
				JOINT HairF
				{
					OFFSET -0.864800 17.612701 -11.592200
					CHANNELS 3 Xrotation Yrotation Zrotation
					JOINT HairF1
					{
						OFFSET 0.000000 -14.087097 -2.127501
						CHANNELS 3 Xrotation Yrotation Zrotation
						End Site
						{
							OFFSET 0.000000 14.246841 0.000000
						}
					}
				}
				JOINT HairG
				{
					OFFSET -8.087700 17.612701 -11.592200
					CHANNELS 3 Xrotation Yrotation Zrotation
					JOINT HairG1
					{
						OFFSET -0.293600 -6.081398 -0.910100
						CHANNELS 3 Xrotation Yrotation Zrotation
						End Site
						{
							OFFSET 0.000000 6.156120 0.000000
						}
					}
				}
			}
		}
	}
	JOINT Pouch
	{
		OFFSET 0.000000 4.394501 10.847300
		CHANNELS 3 Xrotation Yrotation Zrotation
		End Site
		{
			OFFSET 0.000000 21.880577 0.000000
		}
	}
	JOINT Bag
	{
		OFFSET -13.229000 4.813004 -0.593300
		CHANNELS 3 Xrotation Yrotation Zrotation
		End Site
		{
			OFFSET 0.000000 21.880577 0.000000
		}
	}
	JOINT OccupyGuyFacialAnim_Joint
	{
		OFFSET 1.000000 -70.206398 -1.655000
		CHANNELS 3 Xrotation Yrotation Zrotation
		End Site
		{
			OFFSET 0.000000 21.880577 0.000000
		}
	}
}
MOTION
Frames: 4
Frame Time: 0.016667
-0.078113 76.585144 -1.673317 -90.807228 -2.099543 1.865149 -0.000000 0.000000 -0.000000 -1.264397 20.390092 14.054075 3.345326 1.708547 1.553493 20.506665 30.309818 -25.620285 -0.000001 0.000002 -0.000000 0.000000 0.000001 0.000000 -2.074473 -20.567190 -15.740905 0.453606 -5.981160 -4.757782 32.275980 -30.225489 30.622579 0.000001 0.000000 0.000000 0.000000 0.000001 0.000001 0.698349 -0.113354 -1.016394 0.841697 0.154199 -0.463160 0.831244 0.158014 -0.488484 -3.902744 4.009047 -8.413907 2.479699 8.403993 -12.879458 -0.000000 0.000000 -0.000001 -0.000000 0.000000 -0.000001 -0.000000 0.000000 -0.000002 -0.000000 0.000000 0.000000 -0.000000 -0.000001 0.000000 -0.000000 0.000000 0.000000 -0.000000 -0.000001 0.000000 -0.000000 0.000000 -0.000001 -0.000000 0.000000 -0.000001 0.834129 -6.730774 -3.480305 44.076590 -39.845848 -34.620914 -0.000017 -83.340520 -0.000042 -23.114873 -8.492728 7.463178 -1.945779 1.585344 13.204808 8.601848 21.114932 -0.258292 0.000001 -0.000002 -0.000001 0.776303 5.158045 -28.512490 0.566015 2.514170 -25.370946 0.000000 -0.000000 0.000001 0.776302 5.158042 -28.512490 0.566017 2.514173 -25.370939 0.000001 0.000001 0.000003 0.776303 5.158025 -28.512490 0.351471 2.000419 -19.928006 -0.000001 0.000000 -0.000001 0.776300 5.158038 -28.512492 0.064897 0.870549 -8.527011 0.000001 -0.000004 0.000000 0.000001 0.000001 0.000001 0.483606 4.500680 3.202686 -4.326305 2.268499 83.611522 0.000055 129.571967 -0.000043 -0.045405 -5.712096 64.766791 -1.120902 -3.665710 -6.555842 8.244861 -30.620780 -3.274782 0.000003 0.000001 0.000005 4.540612 -8.344346 48.387399 6.575526 -4.244493 114.349101 -0.000001 0.000002 -0.000001 2.375469 -6.542212 44.640207 7.222616 -3.888179 123.454822 0.000001 0.000004 -0.000002 2.745573 -6.923841 44.442279 7.225013 -3.886612 123.490298 -0.000000 -0.000001 0.000001 -10.268033 -14.528506 47.436279 6.314156 -4.353048 110.862904 0.000001 0.000001 -0.000005 -0.000000 0.000003 -0.000000 0.000000 0.000000 0.000000 0.000000 0.000000 -0.000000 0.000000 0.000000 -0.000000 0.000000 0.000000 -0.000000 0.000000 0.000000 0.000000 0.000000 0.000000 -0.000000 0.000000 0.000000 -0.000000 0.000000 0.000000 -0.000000 0.000000 0.000000 0.000000 0.000000 0.000000 -0.000000 -0.000000 0.000000 -0.000000 -0.000000 0.000000 -0.000000 -0.000000 0.000000 -0.000000 
-0.078041 76.585228 -1.672798 -90.807973 -2.099242 1.866269 0.000000 0.000000 -0.000000 -1.264197 20.390153 14.054111 3.348900 1.694282 1.553509 20.507115 30.309846 -25.619654 -0.000000 0.000001 -0.000000 0.000000 -0.000000 0.000000 -2.074807 -20.567096 -15.740968 0.454237 -5.974428 -4.757791 32.275663 -30.225629 30.622487 -0.000001 -0.000001 0.000000 0.000000 -0.000001 0.000001 0.698388 -0.113362 -1.016299 0.841703 0.154199 -0.463160 0.831235 0.158014 -0.488483 -3.911645 4.013355 -8.413903 2.496870 8.457179 -12.890529 -0.000000 -0.000000 0.000000 -0.000000 -0.000000 0.000000 -0.000000 -0.000000 -0.000000 -0.000000 -0.000000 0.000000 -0.000000 -0.000001 0.000000 -0.000000 -0.000000 0.000000 -0.000000 -0.000001 0.000000 -0.000000 -0.000000 0.000000 -0.000000 -0.000000 0.000000 0.834530 -6.714838 -3.485306 44.088963 -39.859485 -34.587692 0.000338 -83.340507 0.000311 -23.122548 -8.493325 7.462403 -1.945776 1.585337 13.204808 8.601849 21.114936 -0.258290 -0.000004 0.000002 -0.000001 0.776302 5.158045 -28.512490 0.566013 2.514161 -25.370946 0.000001 0.000001 -0.000000 0.776305 5.158041 -28.512490 0.566015 2.514174 -25.370934 0.000001 -0.000001 0.000001 0.776304 5.158022 -28.512492 0.351473 2.000422 -19.928006 -0.000001 0.000002 -0.000001 0.776301 5.158038 -28.512503 0.064898 0.870545 -8.527010 -0.000000 0.000001 -0.000001 -0.000001 0.000003 -0.000002 0.484299 4.488120 3.202632 -4.331817 2.278541 83.612457 -0.000017 129.566599 0.000011 -0.044852 -5.712094 64.772337 -1.120905 -3.665708 -6.555840 8.244865 -30.620780 -3.274781 0.000001 -0.000003 0.000002 4.540602 -8.344343 48.387393 6.575530 -4.244495 114.349101 0.000001 -0.000001 0.000000 2.375465 -6.542209 44.640211 7.222624 -3.888182 123.454822 0.000004 0.000002 0.000001 2.745570 -6.923839 44.442282 7.225014 -3.886614 123.490298 -0.000000 -0.000001 -0.000001 -10.268033 -14.528504 47.436275 6.314158 -4.353047 110.862904 0.000001 0.000002 -0.000003 0.000000 0.000004 0.000001 -0.000000 0.000000 -0.000000 0.000000 0.000000 -0.000000 -0.000000 0.000000 -0.000000 -0.000000 0.000000 -0.000000 -0.000000 0.000000 -0.000000 0.000000 0.000000 -0.000000 -0.000000 0.000000 -0.000000 -0.000000 0.000000 -0.000000 -0.000000 0.000000 -0.000000 0.000000 0.000000 -0.000000 0.000000 0.000000 -0.000000 0.000000 0.000000 -0.000000 0.000000 0.000000 -0.000000 
-0.077748 76.585533 -1.672363 -90.808984 -2.098862 1.867292 -0.000000 0.000000 0.000000 -1.264238 20.390118 14.054222 3.355189 1.682061 1.553506 20.503695 30.309139 -25.619075 0.000000 0.000002 -0.000000 0.000000 0.000000 -0.000000 -2.075252 -20.572397 -15.740854 0.455190 -5.961648 -4.757374 32.275021 -30.225862 30.622221 -0.000000 0.000002 -0.000001 -0.000000 -0.000001 0.000001 0.698388 -0.113370 -1.016176 0.841685 0.154199 -0.463160 0.831234 0.158014 -0.488483 -3.937779 4.024675 -8.413905 2.565408 8.514517 -12.913612 0.000000 -0.000000 -0.000001 0.000000 -0.000000 -0.000001 0.000000 -0.000000 -0.000002 0.000000 -0.000000 0.000001 -0.000000 0.000000 0.000001 0.000000 -0.000000 0.000001 -0.000000 0.000000 0.000001 0.000000 -0.000000 -0.000001 0.000000 -0.000000 -0.000001 0.834868 -6.690141 -3.495206 44.105865 -39.875051 -34.542917 0.000411 -83.340534 0.000388 -23.131803 -8.494014 7.461446 -1.945778 1.585340 13.204806 8.601845 21.114936 -0.258284 -0.000003 0.000002 0.000001 0.776304 5.158043 -28.512492 0.566014 2.514169 -25.370949 0.000001 0.000000 -0.000002 0.776307 5.158043 -28.512492 0.566014 2.514175 -25.370937 0.000002 -0.000001 0.000001 0.776304 5.158021 -28.512492 0.351469 2.000425 -19.928006 -0.000003 0.000000 -0.000002 0.776301 5.158038 -28.512500 0.064895 0.870547 -8.527010 -0.000002 -0.000001 0.000003 0.000000 0.000000 -0.000001 0.485155 4.473280 3.202566 -4.337905 2.290723 83.617642 -0.000012 129.559946 0.000016 -0.044341 -5.712106 64.777507 -1.120902 -3.665710 -6.555842 8.244864 -30.620776 -3.274784 -0.000000 -0.000001 0.000001 4.540607 -8.344345 48.387393 6.575526 -4.244496 114.349094 0.000002 -0.000000 -0.000003 2.375469 -6.542213 44.640211 7.222619 -3.888180 123.454822 0.000002 0.000000 -0.000001 2.745574 -6.923839 44.442282 7.225013 -3.886612 123.490298 0.000004 0.000003 -0.000002 -10.268027 -14.528504 47.436275 6.314153 -4.353047 110.862904 -0.000001 0.000001 -0.000003 0.000000 -0.000001 -0.000000 0.000000 0.000000 -0.000000 0.000000 0.000000 -0.000000 0.000000 0.000000 -0.000000 0.000000 0.000000 -0.000000 0.000000 0.000000 -0.000000 0.000000 0.000000 -0.000000 0.000000 0.000000 -0.000000 0.000000 0.000000 -0.000000 0.000000 0.000000 -0.000000 0.000000 0.000000 -0.000000 -0.000000 0.000000 0.000000 -0.000000 0.000000 0.000000 -0.000000 0.000000 0.000000 
-0.077236 76.585938 -1.671913 -90.810206 -2.098312 1.868189 -0.000000 0.000000 0.000000 -1.268877 20.395703 14.054071 3.364671 1.682470 1.553521 20.494005 30.307762 -25.619013 0.000000 -0.000001 0.000000 -0.000000 -0.000002 -0.000001 -2.074180 -20.582317 -15.740109 0.453319 -5.958814 -4.756805 32.275875 -30.225681 30.621975 0.000001 0.000002 0.000000 0.000000 0.000001 -0.000002 0.698361 -0.113379 -1.016024 0.841692 0.154198 -0.463160 0.831240 0.158013 -0.488483 -3.979803 4.042044 -8.413905 2.683953 8.574679 -12.963800 -0.000000 -0.000001 0.000002 -0.000000 -0.000001 0.000002 -0.000000 -0.000001 0.000002 -0.000000 -0.000001 0.000002 -0.000000 -0.000001 0.000002 -0.000000 -0.000001 0.000002 -0.000000 -0.000001 0.000002 -0.000000 -0.000001 0.000002 -0.000000 -0.000001 0.000002 0.835175 -6.657528 -3.509656 44.126874 -39.892417 -34.487575 -0.000077 -83.340513 -0.000068 -23.142501 -8.494810 7.460367 -1.945777 1.585344 13.204807 8.601850 21.114929 -0.258292 -0.000001 -0.000001 -0.000002 0.776302 5.158047 -28.512486 0.566012 2.514170 -25.370946 0.000002 -0.000002 0.000001 0.776306 5.158042 -28.512495 0.566015 2.514177 -25.370937 -0.000001 0.000001 0.000001 0.776305 5.158024 -28.512490 0.351470 2.000422 -19.928006 -0.000002 0.000003 -0.000000 0.776299 5.158038 -28.512498 0.064894 0.870548 -8.527011 -0.000000 -0.000001 0.000003 0.000001 0.000000 -0.000001 0.486100 4.456129 3.202491 -4.344478 2.305363 83.623072 0.000003 129.552078 -0.000014 -0.043856 -5.712101 64.782391 -1.120896 -3.665709 -6.555842 8.244859 -30.620783 -3.274786 -0.000001 -0.000001 0.000002 4.540608 -8.344344 48.387393 6.575527 -4.244493 114.349101 -0.000002 0.000003 -0.000001 2.375469 -6.542210 44.640211 7.222623 -3.888181 123.454822 0.000006 0.000001 -0.000001 2.745574 -6.923837 44.442275 7.225009 -3.886611 123.490298 0.000001 -0.000003 0.000004 -10.268030 -14.528502 47.436279 6.314161 -4.353048 110.862904 0.000001 0.000001 -0.000003 -0.000000 -0.000000 -0.000000 0.000000 0.000000 0.000000 0.000000 0.000000 -0.000000 0.000000 0.000000 0.000000 0.000000 0.000000 0.000000 0.000000 0.000000 0.000000 0.000000 0.000000 -0.000000 0.000000 0.000000 0.000000 0.000000 0.000000 0.000000 0.000000 0.000000 0.000000 0.000000 0.000000 -0.000000 -0.000000 0.000000 0.000000 -0.000000 0.000000 0.000000 -0.000000 0.000000 0.000000 
